<svg viewBox="0 0 1024 1024" xmlns="http://www.w3.org/2000/svg" fill-rule="evenodd" clip-rule="evenodd" stroke-linejoin="round" stroke-miterlimit="2"><path d="M983.821 294.744c0-122.757-104.165-222.421-232.467-222.421H286.422c-128.302 0-232.467 99.664-232.467 222.421v444.843c0 122.758 104.165 222.422 232.467 222.422h464.932c128.302 0 232.467-99.664 232.467-222.422V294.744z" fill="url(#_Linear1)" transform="matrix(1.07542 0 0 1.12399 -46.025 -69.29)"/><path d="M434.62 262c-62.46 0-113.096 54.533-113.096 121.796 0 6.27.452 12.417 1.303 18.43-32.636 18.044-54.875 54.59-54.875 96.942 0 60.384 45.131 108.974 101.19 108.974h130.953v92.564c-6.81 3.205-12.256 9.103-15.256 16.41H318.917c-4.607-11.282-14.976-19.23-27.155-19.23-16.435 0-29.762 14.359-29.762 32.051s13.327 32.051 29.762 32.051c12.179 0 22.548-7.948 27.155-19.23h165.922c4.613 11.282 14.982 19.23 27.161 19.23 12.179 0 22.548-7.948 27.155-19.23h165.928c4.607 11.282 14.976 19.23 27.155 19.23 16.435 0 29.762-14.359 29.762-32.05 0-17.693-13.327-32.052-29.762-32.052-12.179 0-22.548 7.948-27.155 19.23H539.155c-2.994-7.307-8.44-13.205-15.25-16.41v-92.564h136.904c52.602 0 95.239-45.897 95.239-102.564 0-52.539-36.774-95.763-84.078-101.75-5.458-43.872-40.357-77.725-82.59-77.725-18.076 0-34.707 6.302-48.362 16.827C525.41 295.783 483.756 262 434.619 262z" fill="#fff" fill-rule="nonzero"/><defs><linearGradient id="_Linear1" x1="0" y1="0" x2="1" y2="0" gradientUnits="userSpaceOnUse" gradientTransform="matrix(955.549 -911.039 952.182 914.26 40.777 968.819)"><stop offset="0" stop-color="#1ecbe1"/><stop offset="1" stop-color="#e30183"/></linearGradient></defs></svg>